<svg xmlns="http://www.w3.org/2000/svg" width="255" height="69" fill="none" viewBox="0 0 255 69" class="c8990c88"><path fill="#FFCE32" d="M252.3 2.7l2.3 1.3-2.3 1.3-1.3 2.3-1.3-2.3-2.3-1.3 2.3-1.3L251 .4l1.3 2.3z"></path><path fill="#FFCE32" d="M251 8a.4.4 0 0 1-.3-.2l-1.3-2.2-2.2-1.3a.4.4 0 0 1 0-.6l2.2-1.2 1.3-2.3a.4.4 0 0 1 .6 0l1.3 2.2 2.2 1.3a.4.4 0 0 1 0 .6l-2.2 1.2-1.3 2.3a.4.4 0 0 1-.3.2zm-2.9-4l1.8 1a.4.4 0 0 1 .1 0l1 2 1-2a.4.4 0 0 1 .1 0l1.8-1-1.8-1a.4.4 0 0 1-.1 0l-1-2-1 2a.4.4 0 0 1-.1 0L248 4z"></path><path fill="#FFEDB2" d="M118 10l1.7 1-1.7 1-1 1.7-1-1.7-1.7-1 1.7-1 1-1.7 1 1.7z"></path><path fill="#FFEDB2" d="M117 14a.3.3 0 0 1-.2-.1l-1-1.7-1.7-1a.3.3 0 0 1 0-.4l1.7-1 1-1.7a.3.3 0 0 1 .4 0l1 1.7 1.7 1a.3.3 0 0 1 0 .4l-1.7 1-1 1.7a.3.3 0 0 1-.2.1zm-2.2-3l1.4.7a.3.3 0 0 1 0 .1l.8 1.4.7-1.4a.3.3 0 0 1 .1 0l1.4-.8-1.4-.7a.3.3 0 0 1 0-.1l-.8-1.4-.7 1.3a.3.3 0 0 1-.1.2l-1.4.7z"></path><path fill="#FFE48D" d="M151.3 38.7l2.3 1.3-2.3 1.3-1.3 2.3-1.3-2.3-2.3-1.3 2.3-1.3 1.3-2.3 1.3 2.3z"></path><path fill="#FFE48D" d="M150 44a.4.4 0 0 1-.3-.2l-1.3-2.3-2.2-1.2a.4.4 0 0 1 0-.6l2.2-1.2 1.3-2.3a.4.4 0 0 1 .6 0l1.3 2.2 2.2 1.3a.4.4 0 0 1 0 .6l-2.2 1.2-1.3 2.3a.4.4 0 0 1-.3.2zm-2.9-4l1.8 1a.4.4 0 0 1 .1 0l1 2 1-2a.4.4 0 0 1 .1 0l1.8-1-1.8-1a.4.4 0 0 1-.1 0l-1-2-1 2a.4.4 0 0 1-.1 0l-1.8 1z"></path><path fill="#FFCE32" d="M23 20.9c0-4.2.7-8.3 2.2-11.9A29.2 29.2 0 0 0 8 36a29 29 0 0 0 29 29c12 0 22.5-7 27-17.2a30 30 0 0 1-11.8 2.1A29 29 0 0 1 23 21z" filter="url(#filter0_d_284_3387)"></path><defs><filter id="filter0_d_284_3387" width="64" height="64" x="0" y="5" color-interpolation-filters="sRGB" filterUnits="userSpaceOnUse"><feFlood flood-opacity="0" result="BackgroundImageFix"></feFlood><feColorMatrix in="SourceAlpha" result="hardAlpha" values="0 0 0 0 0 0 0 0 0 0 0 0 0 0 0 0 0 0 127 0"></feColorMatrix><feOffset dx="-4"></feOffset><feGaussianBlur stdDeviation="2"></feGaussianBlur><feComposite in2="hardAlpha" operator="out"></feComposite><feColorMatrix values="0 0 0 0 0 0 0 0 0 0 0 0 0 0 0 0 0 0 0.16 0"></feColorMatrix><feBlend in2="BackgroundImageFix" result="effect1_dropShadow_284_3387"></feBlend><feBlend in="SourceGraphic" in2="effect1_dropShadow_284_3387" result="shape"></feBlend></filter></defs></svg>