<svg xmlns="http://www.w3.org/2000/svg" width="192" height="109"><defs><clipPath id="a"><path fill="#fff" d="M0 0h192v109H0z" data-name="Rectangle 38178" transform="translate(1 -3)"/></clipPath></defs><g clip-path="url(#a)" data-name="Mask Group 53114" transform="translate(-1 3)"><path fill="#fafafa" d="M1-3h192v109H1z" data-name="Rectangle 38177"/><g fill="none" stroke="#f0f4f4" stroke-width="42" data-name="Ellipse 2487" transform="translate(3 -43)"><circle cx="95" cy="95" r="95" stroke="none"/><circle cx="95" cy="95" r="74"/></g><path fill="#ccd5d6" d="M92.6 52.5h2.9v3h-3z" data-name="Path 147677"/><path fill="#ccd5d6" d="M75 49.5h25a12.6 12.6 0 0 1 16-11.2v-2a1.5 1.5 0 0 0-1.4-1.4h-13.2v-4.4a1.5 1.5 0 0 0-1.5-1.5H88.1a1.5 1.5 0 0 0-1.4 1.5v4.4H73.5a1.5 1.5 0 0 0-1.5 1.4V47a3 3 0 0 0 3 2.5zM89.6 32h8.8v3h-8.8z" data-name="Path 147678"/><path fill="#ccd5d6" d="M106.1 61.2a12.6 12.6 0 0 1-6-8.7h-1.7v4.4a1.5 1.5 0 0 1-1.4 1.5h-6a1.5 1.5 0 0 1-1.4-1.5v-4.4H75a6 6 0 0 1-3-.8v19.2a1.5 1.5 0 0 0 1.5 1.5h32.7V61.2z" data-name="Path 147679"/><path fill="#a4b4b6" d="M119.3 43.6A9.6 9.6 0 1 0 109 59.4v3.4h6.9v-3.4a9.6 9.6 0 0 0 3.4-15.8zM112.5 57a6.7 6.7 0 1 1 6.7-6.7 6.7 6.7 0 0 1-6.7 6.7z" data-name="Path 147680"/><path fill="#a4b4b6" d="M109 71.6a3.4 3.4 0 1 0 6.9 0v-5.9H109z" data-name="Path 147681"/></g></svg>